<?xml version="1.0" standalone="no"?>
<!DOCTYPE svg PUBLIC "-//W3C//DTD SVG 20010904//EN"
 "http://www.w3.org/TR/2001/REC-SVG-20010904/DTD/svg10.dtd">
<svg version="1.0" xmlns="http://www.w3.org/2000/svg"
 width="1280.000000pt" height="825.000000pt" viewBox="0 0 1280.000000 825.000000"
 preserveAspectRatio="xMidYMid meet">
<metadata>
Created by potrace 1.15, written by Peter Selinger 2001-2017
</metadata>
<g transform="translate(0.000000,825.000000) scale(0.100000,-0.100000)"
fill="#000000" stroke="none">
<path d="M10 4125 l0 -4115 6390 0 6390 0 0 4115 0 4115 -6390 0 -6390 0 0
-4115z m6092 3018 c73 -32 138 -102 170 -181 19 -47 23 -76 23 -167 0 -177
-42 -272 -188 -434 -109 -121 -139 -180 -145 -286 -3 -55 1 -101 12 -145 21
-82 79 -206 114 -244 l27 -29 -30 7 c-68 15 -154 67 -208 126 -108 117 -164
276 -155 444 7 116 23 156 137 345 121 200 142 256 149 392 3 78 0 120 -11
159 l-15 52 30 -6 c17 -3 57 -18 90 -33z m426 -595 c71 -44 109 -148 92 -253
-13 -80 -43 -137 -117 -219 -81 -89 -101 -147 -85 -242 6 -35 24 -91 41 -124
17 -34 26 -60 19 -60 -6 0 -30 11 -53 24 -96 57 -161 194 -153 324 4 75 18
109 96 232 68 109 86 170 80 272 l-5 79 26 -6 c14 -4 41 -16 59 -27z m1316 -4
c25 -9 19 -57 -11 -96 -148 -191 -317 -384 -446 -508 -110 -106 -127 -138
-137 -255 -9 -96 -17 -131 -45 -186 -29 -57 -73 -105 -136 -153 -48 -36 -69
-46 -99 -46 -52 0 -96 37 -104 88 -16 92 47 252 131 335 42 40 58 49 108 58
117 22 122 26 214 189 40 70 161 225 303 388 54 62 98 116 98 120 0 4 14 22
31 40 29 31 58 39 93 26z m-1023 -1050 l35 -6 -4 -52 c-7 -90 40 -149 118
-148 51 1 89 24 165 101 71 72 77 73 234 35 110 -27 177 -55 198 -83 13 -18 8
-211 -7 -246 -4 -11 -18 -49 -30 -85 -51 -151 -188 -364 -316 -496 -257 -262
-541 -384 -899 -384 -163 0 -279 17 -410 61 -100 34 -228 95 -281 135 -18 15
-34 22 -34 18 0 -18 91 -104 115 -110 22 -5 25 -11 25 -54 0 -32 6 -55 19 -72
23 -29 111 -70 195 -92 241 -63 661 -40 827 45 52 26 50 33 -3 10 -94 -39
-204 -58 -378 -65 -86 -3 -111 -2 -80 4 25 5 72 9 105 9 75 1 214 25 301 52
76 23 83 35 9 14 -256 -74 -721 -53 -904 40 -44 22 -72 57 -58 72 3 2 37 -7
76 -21 178 -64 219 -71 456 -71 245 0 291 7 464 72 144 54 243 112 370 220 41
35 81 63 89 63 54 0 318 -112 387 -165 285 -215 101 -463 -445 -599 -435 -109
-1061 -114 -1555 -15 -356 72 -616 191 -697 318 -79 125 10 248 257 358 140
63 230 89 257 76 13 -6 38 -16 57 -22 29 -10 22 0 -63 87 -53 53 -126 138
-161 187 -60 84 -175 296 -175 321 0 8 27 3 78 -13 218 -69 577 -103 1092
-103 337 0 516 10 760 40 198 24 459 89 505 125 14 10 4 8 -30 -6 -360 -149
-1499 -185 -2140 -67 -140 26 -236 54 -277 82 l-33 22 -3 104 c-1 58 1 100 6
93 4 -7 37 -26 73 -43 363 -170 1501 -204 2139 -63 48 10 68 18 57 22 -15 5
-11 10 18 21 59 23 62 36 14 60 -30 16 -52 20 -78 16 -21 -3 -30 -2 -23 3 10
6 7 10 -12 13 -14 3 -23 2 -21 -2 3 -4 -14 -1 -36 6 -22 8 -44 12 -49 9 -4 -3
-11 0 -13 5 -3 6 -4 5 -3 -2 8 -35 -67 -98 -115 -98 -12 0 -19 -3 -16 -7 9 -8
-12 -33 -27 -33 -6 0 -5 4 3 9 16 10 6 31 -15 31 -8 0 -32 9 -53 19 -29 15
-40 29 -49 59 -12 40 -13 40 -80 52 -69 12 -803 9 -927 -3 -33 -4 -94 -9 -135
-12 -41 -3 -109 -10 -150 -16 -41 -5 -86 -11 -100 -13 -63 -8 -117 -19 -135
-29 -11 -6 -23 -10 -27 -9 -3 1 -12 -6 -19 -14 -11 -14 -10 -18 6 -30 31 -23
13 -23 -56 1 -86 29 -153 66 -157 87 -6 33 131 85 308 117 165 29 479 57 725
65 136 4 691 -4 736 -10z m-3776 -1664 c50 -6 121 -18 159 -27 l69 -17 -7
-105 c-8 -129 -18 -176 -58 -263 l-31 -68 -61 0 c-125 0 -189 41 -238 149
l-29 63 -97 -4 c-81 -3 -106 -9 -153 -32 -145 -72 -248 -233 -290 -454 -32
-170 33 -333 157 -391 77 -36 137 -43 228 -26 95 18 254 66 332 101 30 13 58
24 62 24 18 0 46 -108 47 -180 0 -107 -12 -130 -85 -158 -133 -52 -237 -66
-480 -67 -205 0 -233 2 -315 24 -307 80 -450 274 -432 586 27 461 324 784 777
845 84 11 344 11 445 0z m5505 -10 c49 -25 70 -64 70 -130 0 -128 -87 -217
-223 -227 -91 -7 -136 7 -177 53 -26 30 -30 42 -30 92 0 72 26 129 78 173 52
44 93 57 175 58 49 1 79 -4 107 -19z m813 -279 c21 -5 41 -11 43 -14 3 -3 -7
-48 -21 -102 -15 -53 -25 -98 -23 -100 2 -2 35 0 73 5 115 15 122 14 134 -21
47 -136 -73 -289 -227 -289 l-48 0 -22 -132 c-32 -194 -36 -238 -24 -238 5 0
41 12 78 26 166 63 225 79 235 63 21 -32 41 -126 41 -188 -1 -78 -8 -86 -110
-125 -114 -43 -198 -58 -327 -58 -128 -1 -176 10 -245 56 -61 40 -80 91 -80
211 0 94 30 347 46 388 3 10 1 18 -7 21 -122 34 -127 36 -138 68 -16 44 -14
105 5 143 20 42 73 65 152 65 l57 0 33 74 c19 41 49 93 69 115 l35 41 116 0
c64 0 134 -4 155 -9z m-3718 -192 c25 -6 56 -23 71 -38 26 -26 26 -28 20 -122
-6 -100 -34 -227 -61 -278 -15 -30 -18 -31 -81 -31 -35 0 -79 6 -97 14 -42 17
-96 79 -104 118 -5 27 -9 29 -35 24 -64 -13 -111 -74 -153 -198 -29 -87 -55
-265 -55 -374 l0 -72 -66 -7 c-119 -13 -241 29 -285 98 -19 29 -20 43 -15 157
5 112 29 266 55 358 7 24 7 34 -2 36 -7 2 -32 9 -57 16 -56 15 -106 65 -115
113 -10 54 2 125 23 131 9 3 136 13 281 22 198 12 266 13 275 4 6 -6 10 -38 9
-77 l-2 -67 24 37 c32 47 131 104 220 127 84 23 94 23 150 9z m1321 -30 c49
-23 94 -71 94 -100 0 -34 36 -21 71 25 43 56 101 85 192 98 167 22 287 -15
329 -101 33 -67 31 -219 -6 -405 -15 -76 -25 -140 -23 -143 3 -2 51 10 107 28
113 34 110 35 131 -31 14 -47 23 -162 15 -195 -5 -20 -20 -32 -59 -49 -94 -42
-153 -51 -322 -51 -145 0 -164 2 -200 22 -97 52 -108 95 -75 283 26 141 35
239 27 272 -18 70 -98 91 -158 41 -68 -58 -104 -194 -118 -451 -5 -90 -12
-166 -16 -170 -4 -4 -48 -7 -99 -7 -83 0 -98 3 -151 30 -113 58 -124 105 -80
359 28 163 30 198 14 229 -16 30 -28 37 -71 37 -77 0 -148 -101 -182 -260 -21
-101 -36 -229 -36 -316 l0 -72 -63 -7 c-68 -7 -160 6 -205 29 -39 20 -92 81
-94 109 -9 138 3 265 41 422 11 44 17 83 15 86 -2 4 -12 5 -23 2 -32 -8 -104
18 -132 48 -32 34 -44 89 -34 159 8 56 5 55 145 64 41 3 145 11 232 17 115 8
162 8 177 0 26 -14 51 -61 51 -96 0 -39 39 -34 67 9 28 43 131 96 210 107 85
11 179 3 229 -22z m-2885 -4 c95 -16 200 -50 299 -96 l67 -31 -24 -126 c-14
-70 -37 -189 -52 -265 -32 -161 -45 -149 106 -97 51 18 99 30 107 27 19 -7 36
-64 43 -143 l6 -62 -54 -55 c-66 -67 -139 -97 -255 -104 -133 -9 -246 35 -300
117 -15 22 -33 40 -40 40 -8 0 -30 -18 -50 -40 -21 -23 -68 -56 -112 -78 -72
-35 -81 -37 -171 -37 -111 0 -160 17 -231 81 -59 53 -87 115 -100 220 -10 79
-9 100 9 189 73 356 356 530 752 460z m4392 -5 c53 -42 59 -135 18 -296 -24
-96 -47 -211 -56 -281 l-7 -53 84 29 c45 16 97 32 114 35 31 7 32 5 48 -41 20
-56 32 -169 22 -208 -5 -20 -21 -33 -69 -55 -99 -47 -171 -62 -318 -67 -129
-5 -139 -4 -178 18 -124 69 -143 241 -60 558 10 41 19 78 19 81 0 3 -22 6 -50
6 -57 0 -96 23 -120 70 -17 33 -21 168 -5 182 6 6 73 13 150 17 169 9 368 21
376 23 4 1 18 -7 32 -18z m2107 6 c123 -22 360 -111 360 -135 0 -15 -84 -447
-97 -498 -7 -31 4 -30 115 12 51 19 101 35 111 35 21 0 34 -28 52 -111 15 -72
2 -114 -50 -162 -49 -45 -86 -64 -163 -82 -164 -39 -315 2 -385 104 -16 22
-33 40 -40 41 -6 0 -34 -22 -62 -49 -59 -58 -157 -101 -246 -108 -230 -19
-378 144 -362 397 19 299 197 513 467 560 72 12 219 10 300 -4z m-4658 -1189
c10 -4 8 -10 -7 -22 -33 -28 -162 -86 -202 -92 -37 -5 -38 -4 -38 27 0 26 6
34 40 49 22 10 62 35 89 54 l49 36 28 -24 c16 -13 34 -25 41 -28z m1628 -22
c-17 -20 -168 -87 -210 -92 -38 -5 -40 -4 -40 21 0 20 8 32 31 44 17 9 58 36
92 59 l60 41 39 -30 c26 -22 35 -35 28 -43z m-3386 34 c98 -27 146 -89 146
-189 0 -72 -20 -122 -62 -153 -15 -11 -28 -29 -28 -39 0 -10 20 -58 44 -106
71 -142 73 -133 -30 -130 l-87 3 -41 97 c-23 54 -47 103 -53 109 -5 5 -28 9
-49 7 l-39 -3 3 -108 3 -108 -87 3 -87 3 2 305 c2 220 6 307 14 312 18 12 307
9 351 -3z m3098 -46 c0 -29 1 -58 2 -65 1 -12 -87 -13 -126 -2 -17 5 -18 -12
-18 -251 l0 -256 -87 3 -88 3 4 248 3 249 -76 -7 c-42 -4 -76 -4 -76 1 0 4 5
35 11 68 l10 61 220 1 219 1 2 -54z m-2724 11 c55 -63 -24 -139 -104 -101 -38
19 -52 56 -35 93 22 50 98 54 139 8z m3756 6 c22 -22 25 -72 7 -94 -33 -40
-131 -23 -146 25 -25 77 80 129 139 69z m-2848 -151 c24 -6 47 -16 50 -21 4
-6 1 -34 -6 -62 l-12 -52 -60 4 c-51 4 -62 1 -82 -17 -32 -30 -40 -75 -20
-116 20 -42 60 -59 118 -51 49 8 50 6 61 -67 l7 -45 -38 -11 c-89 -25 -168
-11 -225 37 -56 48 -79 101 -79 182 0 54 5 74 30 117 32 56 58 77 118 99 46
16 81 17 138 3z m421 -16 c47 -22 100 -85 114 -135 24 -90 -9 -202 -73 -252
-43 -32 -117 -50 -175 -42 -133 18 -213 138 -184 276 13 60 38 99 86 135 57
44 158 52 232 18z m2809 16 c24 -6 47 -16 50 -21 4 -6 1 -33 -6 -62 l-12 -51
-65 0 c-60 0 -67 -2 -86 -27 -11 -15 -20 -41 -20 -58 0 -70 49 -107 127 -96
l45 7 10 -38 c19 -67 15 -81 -26 -92 -96 -27 -194 -3 -247 60 -41 49 -56 90
-56 158 0 97 40 164 123 206 56 27 95 31 163 14z m434 -23 c68 -33 101 -88
108 -175 6 -89 -14 -146 -68 -195 -84 -76 -217 -75 -302 2 -52 47 -68 85 -68
167 0 128 58 203 173 224 56 10 103 4 157 -23z m-4109 14 c19 -6 46 -22 60
-36 23 -25 24 -31 27 -210 l4 -184 -76 0 -76 0 0 136 c0 74 -5 144 -10 155
-15 27 -79 26 -108 -1 -21 -19 -22 -30 -22 -155 l0 -135 -75 0 -75 0 0 173 c0
94 -4 186 -9 203 l-9 31 68 12 c89 14 90 14 90 -8 0 -33 18 -34 82 -2 67 34
76 35 129 21z m1451 -11 c10 -6 28 -25 38 -42 18 -28 20 -51 20 -204 l0 -173
-75 0 -75 0 0 133 c0 154 -8 177 -66 177 -21 0 -42 -8 -54 -20 -18 -18 -20
-33 -20 -155 l0 -135 -75 0 -75 0 0 153 c0 83 -3 175 -6 203 l-6 52 64 11 c81
14 88 14 88 -1 1 -37 16 -39 81 -8 66 32 113 34 161 9z m1043 -61 c-4 -40 -9
-136 -11 -213 l-3 -140 -70 -3 -71 -3 0 139 c0 76 -3 173 -6 215 l-7 77 88 0
88 0 -8 -72z m241 48 l6 -24 41 24 c77 44 180 28 235 -35 55 -64 72 -142 48
-225 -21 -70 -74 -129 -134 -147 -43 -13 -58 -11 -171 18 l-24 6 7 -82 7 -81
-75 0 -76 0 -1 218 c0 119 -4 242 -8 272 -5 30 -7 57 -5 59 6 7 70 19 106 20
32 1 39 -3 44 -23z m-3188 -64 c-5 -42 -7 -135 -6 -207 l3 -130 -72 -3 -73 -3
0 158 c0 87 -3 181 -6 210 l-7 51 85 0 84 1 -8 -77z m3762 -133 l0 -209 -75 0
-75 0 0 143 c0 78 -3 172 -6 209 l-7 67 82 -1 81 0 0 -209z"/>
<path d="M5262 4379 c-57 -29 -127 -99 -153 -157 -17 -35 -23 -70 -25 -136 -2
-49 -6 -91 -9 -94 -11 -11 -4 -33 12 -39 9 -3 44 -34 77 -68 85 -85 130 -105
241 -105 86 0 195 24 195 43 0 5 -5 5 -10 2 -23 -14 -122 26 -167 68 -83 77
-128 160 -153 289 -11 55 -11 71 4 121 9 32 26 67 36 77 26 26 6 26 -48 -1z"/>
<path d="M3888 3076 c-102 -37 -148 -109 -164 -251 -12 -115 28 -185 107 -185
53 0 92 36 135 126 31 65 84 243 84 285 0 11 -11 18 -32 22 -18 3 -46 8 -63
11 -16 3 -47 0 -67 -8z"/>
<path d="M10415 3085 c-5 -2 -22 -6 -38 -9 -42 -10 -102 -70 -127 -127 -26
-63 -37 -178 -21 -236 17 -64 82 -91 146 -61 53 24 127 174 154 313 7 33 14
70 16 81 4 18 -1 23 -33 28 -75 13 -87 15 -97 11z"/>
<path d="M3973 2023 c-9 -3 -13 -31 -13 -88 0 -66 3 -84 16 -89 24 -9 88 -7
121 4 68 24 69 131 2 166 -27 13 -100 18 -126 7z"/>
<path d="M5708 1810 c-28 -28 -30 -35 -26 -82 6 -60 32 -88 82 -88 70 0 109
67 81 137 -27 68 -88 82 -137 33z"/>
<path d="M8960 1827 c-84 -42 -54 -187 39 -187 70 0 112 81 77 149 -25 46 -70
61 -116 38z"/>
<path d="M7770 1808 c-22 -24 -27 -88 -11 -131 21 -55 124 -56 150 -1 23 51 4
133 -34 148 -36 13 -84 6 -105 -16z"/>
</g>
</svg>
